<svg version="1.1" id="Layer_1" xmlns:x="ns_extend;" xmlns:i="ns_ai;" xmlns:graph="ns_graphs;" xmlns="http://www.w3.org/2000/svg" xmlns:xlink="http://www.w3.org/1999/xlink" x="0px" y="0px" viewBox="0 0 279.7 137.6" style="enable-background:new 0 0 279.7 137.6;" xml:space="preserve">
 <style type="text/css">
  .st0{fill:#FFFFFF;}
 </style>
 <metadata>
  <sfw xmlns="ns_sfw;">
   <slices>
   </slices>
   <sliceSourceBounds bottomLeftOrigin="true" height="137.6" width="279.7" x="60.2" y="-268.8">
   </sliceSourceBounds>
  </sfw>
 </metadata>
 <g transform="translate(-45 -7.798)">
  <path class="st0" d="M252.4,20c9.2-0.1,17.9,4.6,22.8,12.4c3.9,6.8,4.8,17.8,4.8,25.1s-0.9,18.3-4.8,25.1
		c-4.9,7.8-13.6,12.5-22.8,12.4H107.6c-9.2,0.1-17.9-4.6-22.8-12.4C80.9,75.8,80,64.8,80,57.5s0.9-18.3,4.8-25.1
		c4.9-7.8,13.6-12.5,22.8-12.4H252.4z M204,53.4c0.1-4.8,1-6.4,5.9-6.4c4,0,6.3,0.4,6.3,6v0.4L204,53.4 M118.4,47.4
		c-4.7,0-5.7,1.5-5.8,6.1h12v-0.3C124.5,47.8,122.4,47.4,118.4,47.4 M101.5,57.7c0-13.5,3-17.9,17.1-17.9c13.2,0,17,3.6,17,17.9v1.7
		h-23v0.3c0,6.3,1,8.3,6,8.3c3.5,0,6-0.4,6.1-4.1h10.9c-0.1,5.1-1.8,8-4.7,9.7c-3,1.7-7.2,2.1-12.4,2.1
		C104.8,75.6,101.5,70.9,101.5,57.7 M143,51.2c0-11.1,7.2-11.4,17.1-11.4c6.6,0,15.4,0.1,15.4,8.5v1.4H165c-0.5-2.8-2.7-3-5-3
		c-6.1,0-6.4,0.8-6.4,3.1c0,2,0.4,3.2,6.3,3.4c12.1,0.3,17.1,1,17.1,10.6c0,10.1-7.8,11.7-17.1,11.7c-2.3,0-4.5,0-6.6-0.1
		c-6.8-0.5-10.4-3.1-10.5-10.8H154c0.1,3.9,3.1,4,6,4c5.2,0,6.4-0.3,6.4-3.4c0-1.8-0.5-2.8-1.7-3.3c-1.5-0.4-3.1-0.6-4.7-0.5
		C145.4,61.4,143,58.2,143,51.2 M233.9,47.8h8.1v27.4h11.1V47.8h8.1v-8h-27.3L233.9,47.8z M193.1,57.5c0,13.1,3.2,17.8,17,17.8
		c5.1,0,9.4-0.4,12.3-2c2.8-1.6,4.5-4.4,4.6-9.4h-10.7c-0.2,3.7-2.8,4.1-6.3,4.1c-5.1,0-6.1-2.1-6.1-8.4v-0.4h23v-1.6
		c0-14.3-3.8-17.8-16.9-17.8C196.1,39.6,193.1,44,193.1,57.5 M93.4,81.8c3.5,3.8,10.3,6.6,16.1,6.6h74.7V26.6h-74.7
		c-5.8,0-12.6,2.8-16.1,6.6c-5.6,6-6.8,15.4-6.8,24.3S87.8,75.8,93.4,81.8">
  </path>
  <path class="st0" d="M267.8,15.9c0,2.2,0.8,4.2,2.4,5.7c3.2,3.1,8.3,3.1,11.4,0c1.5-1.5,2.4-3.6,2.4-5.7v0c0-2.1-0.9-4.2-2.4-5.7
		c-1.5-1.6-3.5-2.4-5.7-2.4l0,0c-2.2,0-4.3,0.8-5.7,2.4C268.6,11.7,267.7,13.7,267.8,15.9L267.8,15.9z M275.9,9.5
		c1.7,0,3.3,0.6,4.4,1.8c1.2,1.2,1.9,2.8,1.9,4.5c0,1.7-0.6,3.3-1.9,4.5c-1.1,1.2-2.8,1.9-4.4,1.9c-1.7,0-3.3-0.7-4.5-1.9
		c-1.2-1.2-1.9-2.8-1.8-4.5c0-1.7,0.6-3.3,1.8-4.5C272.6,10.2,274.2,9.5,275.9,9.5z">
  </path>
  <path class="st0" d="M274.6,16.7h0.8l2.4,3h2.6l-3-3.5c0.5-0.2,0.9-0.5,1.3-0.9c0.3-0.4,0.5-0.9,0.5-1.4c0-0.4-0.1-0.8-0.2-1.1
		c-0.2-0.3-0.5-0.6-0.8-0.7c-0.3-0.2-0.7-0.3-1-0.3c-0.5-0.1-0.9-0.1-1.4-0.1h-3.1v8.1h2L274.6,16.7z M274.6,13h0.6
		c0.2,0,0.5,0,0.7,0c0.2,0,0.4,0.1,0.5,0.1c0.2,0.1,0.3,0.2,0.4,0.4c0.1,0.1,0.1,0.3,0.1,0.4c0,0.2,0,0.4-0.1,0.6
		c-0.1,0.2-0.2,0.3-0.3,0.4c-0.2,0.1-0.4,0.2-0.6,0.2c-0.3,0-0.6,0.1-0.9,0h-0.5L274.6,13z">
  </path>
  <path id="logo-tagline-progress-protected" class="st0" d="M45,118.9h7.4c4.3,0,7.3,2.5,7.3,6.9c0,3.8-3,7-8.8,7h-2v6.3H45V118.9z
		 M51.1,129.7c3.1,0,4.6-1.5,4.6-3.9c0-2.4-1.1-3.9-3.9-3.9h-2.8v7.7H51.1z M62.5,123.4h3.8v2.1c0.9-1.4,2.5-2.3,4.2-2.4
		c0.7,0,1.4,0.1,2,0.3l-0.5,3.1c-0.7-0.1-1.3-0.2-2-0.2c-1.4,0-2.8,0.7-3.7,1.8V139h-3.8L62.5,123.4z M73,131.4
		c0-5.3,3.1-8.3,7.8-8.3c5.2,0,7.6,3.1,7.6,8.2c0,5.4-3.3,8.1-7.8,8.1C75.7,139.4,73,136.3,73,131.4L73,131.4z M84.5,131.2
		c0-2.7-0.7-5.2-3.8-5.2c-3,0-3.9,2.5-3.9,5.2c0,2.9,0.9,5.1,3.9,5.1C83.7,136.3,84.5,134.1,84.5,131.2L84.5,131.2z M92.1,144.6
		l0.6-3.1c1.6,0.3,3.1,0.6,4.7,0.6c2.4,0,4-0.3,4-3.1v-0.8c-0.8,0.7-1.9,1-2.9,1c-3.6,0-7.6-0.9-7.6-8c0-5.5,3.7-8.3,8.2-8.3
		c2.1,0,4.1,0.3,6.1,0.7v15.7c0,4.3-3.7,5.9-7.2,5.9C96,145.4,94,145.1,92.1,144.6L92.1,144.6z M101.4,135.6v-9.1
		c-0.8-0.2-1.6-0.3-2.3-0.3c-3.1,0-4.4,2.1-4.4,5.2c0,3.7,1.5,5,4,5C99.7,136.3,100.6,136.1,101.4,135.6L101.4,135.6z M109.6,123.4
		h3.8v2.1c0.9-1.4,2.5-2.3,4.2-2.4c0.7,0,1.4,0.1,2,0.3l-0.5,3.1c-0.7-0.1-1.3-0.2-2-0.2c-1.4,0-2.8,0.7-3.7,1.8V139h-3.8
		L109.6,123.4z M120.3,131.5c0-6.4,3.2-8.4,7.6-8.4c4.5,0,6.3,3,6.3,7.9v1.4h-10.2c0,3.4,2.1,4,4.9,4c1.4-0.1,2.8-0.3,4.2-0.6
		l0.6,2.9c-1.8,0.5-3.6,0.8-5.5,0.8C123.4,139.4,120.3,137.6,120.3,131.5L120.3,131.5z M130.4,129.8c0-2.3-0.9-4-2.8-4
		c-1.9,0-3.2,1.4-3.4,4H130.4z M136.7,138.7l0.5-2.9c1.5,0.3,2.9,0.4,4.4,0.5c2.4,0,3.1-0.7,3.1-1.6c0-2.4-7.9-1.5-7.9-7
		c0-3.1,2.9-4.7,6.1-4.7c1.6,0,3.2,0.3,4.7,0.8l-0.6,2.8c-1.3-0.4-2.7-0.6-4.1-0.6c-1.7,0-2.3,0.8-2.3,1.4c0,2.5,7.8,1.8,7.8,7
		c0,3.9-3.9,4.9-6.5,4.9C140.2,139.4,138.4,139.2,136.7,138.7L136.7,138.7z M150.8,138.7l0.5-2.9c1.5,0.3,2.9,0.4,4.4,0.5
		c2.4,0,3.1-0.7,3.1-1.6c0-2.4-7.9-1.5-7.9-7c0-3.1,2.9-4.7,6.1-4.7c1.6,0,3.2,0.3,4.7,0.8l-0.6,2.8c-1.3-0.4-2.7-0.6-4.1-0.6
		c-1.7,0-2.3,0.8-2.3,1.4c0,2.5,7.8,1.8,7.8,7c0,3.9-3.9,4.9-6.5,4.9C154.3,139.4,152.5,139.2,150.8,138.7L150.8,138.7z
		 M166.5,135.2h4.3v3.9h-4.3V135.2z M181.8,118.8h7.4c4.3,0,7.3,2.5,7.3,6.9c0,3.8-3,7-8.8,7h-2v6.3h-3.9L181.8,118.8z M187.8,129.7
		c3.1,0,4.6-1.5,4.6-3.9c0-2.4-1.1-3.9-3.9-3.9h-2.8v7.7L187.8,129.7z M199.2,123.4h3.8v2.1c0.9-1.4,2.5-2.3,4.2-2.4
		c0.7,0,1.4,0.1,2,0.3l-0.5,3.1c-0.7-0.1-1.3-0.2-2-0.2c-1.4,0-2.8,0.7-3.7,1.8V139h-3.8L199.2,123.4z M209.8,131.4
		c0-5.3,3.1-8.3,7.8-8.3c5.2,0,7.6,3.1,7.6,8.2c0,5.4-3.3,8.1-7.8,8.1C212.5,139.4,209.8,136.3,209.8,131.4L209.8,131.4z
		 M221.3,131.2c0-2.7-0.7-5.2-3.8-5.2c-3,0-3.9,2.5-3.9,5.2c0,2.9,0.9,5.1,3.9,5.1C220.5,136.3,221.3,134.1,221.3,131.2L221.3,131.2
		z M229.2,134.4v-8h-2.3v-2.9h2.3v-3.2h3.8v3.2h4.9v2.9H233v8c0,1.6,0.5,1.8,2.2,1.8c1-0.1,2-0.2,3-0.3l0.4,3
		c-1.1,0.3-2.2,0.5-3.4,0.5C232.3,139.3,229.2,139.4,229.2,134.4L229.2,134.4z M240.4,131.5c0-6.4,3.2-8.4,7.6-8.4
		c4.5,0,6.3,3,6.3,7.9v1.4h-10.2c0,3.4,2.1,4,4.9,4c1.4-0.1,2.8-0.3,4.2-0.6l0.6,2.9c-1.8,0.5-3.6,0.8-5.5,0.8
		C243.6,139.4,240.5,137.6,240.4,131.5L240.4,131.5z M250.5,129.8c0-2.3-0.9-4-2.8-4c-1.9,0-3.2,1.4-3.4,4H250.5z M256.9,131.2
		c0-4.9,3.1-8.1,8.1-8.1c1.6-0.1,3.3,0.3,4.7,1l-1,2.8c-1.1-0.5-2.3-0.7-3.6-0.7c-2.3,0-4.3,1.4-4.3,5c0,3.5,1,5.1,5,5.1
		c1.1,0,2.1-0.2,3.2-0.4l0.5,2.9c-1.3,0.4-2.6,0.5-4,0.5C259.3,139.3,256.9,136.9,256.9,131.2L256.9,131.2z M273.3,134.4v-8H271
		v-2.9h2.3v-3.2h3.8v3.2h4.9v2.9h-4.9v8c0,1.6,0.5,1.8,2.2,1.8c1-0.1,2-0.2,3-0.3l0.4,3c-1.1,0.3-2.2,0.5-3.4,0.5
		C276.4,139.4,273.3,139.4,273.3,134.4L273.3,134.4z M284.6,131.5c0-6.4,3.2-8.4,7.6-8.4c4.5,0,6.3,3,6.3,7.9v1.4h-10.2
		c0,3.4,2.1,4,4.9,4c1.4-0.1,2.8-0.3,4.2-0.6l0.6,2.9c-1.8,0.5-3.6,0.8-5.5,0.8C287.7,139.4,284.6,137.6,284.6,131.5L284.6,131.5z
		 M294.6,129.8c0-2.3-0.9-4-2.8-4c-1.9,0-3.2,1.4-3.4,4H294.6z M301,131.1c0-5.4,3.6-8,8.1-8c0.8,0,1.6,0.1,2.5,0.3v-5.8h3.8V139
		h-3.8v-1.3c-1,1-2.3,1.5-3.7,1.5C304.8,139.3,301,137.9,301,131.1L301,131.1z M311.5,135.1v-8.7c-0.8-0.2-1.6-0.3-2.4-0.3
		c-3.1,0-4.3,2.2-4.3,5.1c0,3.7,1.6,4.9,3.7,4.9C309.5,136,310.6,135.7,311.5,135.1L311.5,135.1z M320.4,135.2h4.3v3.9h-4.3V135.2z">
  </path>
 </g>
</svg>