<svg width="114" height="19" viewBox="0 0 114 19" fill="none" xmlns="http://www.w3.org/2000/svg">
<g clip-path="url(#clip0_31_185)">
<path d="M1.95206 1.96771L2.95514 0.949097H17.8213V17.8214H0.948975V2.98632L1.95206 1.96771ZM1.95206 1.96771L7.38156 7.27623M7.38156 7.27623V3.05814M7.38156 7.27623H3.05802" stroke="white" stroke-width="1.89814"/>
<path d="M3.05811 11.2834H15.7124M11.4416 15.7124V3.05811M7.38165 15.7124C7.38165 12.8502 7.38165 8.22526 7.38165 8.22526M15.7124 7.27619H8.33072" stroke="#FEFEFE" stroke-width="1.89814"/>
</g>
<path d="M27.9267 13.5204C27.296 13.5204 26.6916 13.4378 26.1135 13.2726C25.5353 13.0999 25.0698 12.8785 24.717 12.6082L25.3364 11.2342C25.6743 11.4744 26.0722 11.6734 26.5302 11.8311C26.9957 11.9812 27.465 12.0563 27.938 12.0563C28.2984 12.0563 28.5874 12.0225 28.8052 11.9549C29.0304 11.8799 29.1956 11.7785 29.3007 11.6509C29.4058 11.5232 29.4584 11.3768 29.4584 11.2116C29.4584 11.0014 29.3758 10.8362 29.2106 10.7161C29.0454 10.5885 28.8277 10.4871 28.5574 10.412C28.2871 10.3294 27.9868 10.2543 27.6564 10.1868C27.3336 10.1117 27.007 10.0216 26.6766 9.91647C26.3537 9.81135 26.0572 9.6762 25.7869 9.51102C25.5166 9.34584 25.2951 9.12811 25.1224 8.85781C24.9572 8.58752 24.8746 8.24214 24.8746 7.82168C24.8746 7.37119 24.9948 6.96199 25.235 6.59409C25.4828 6.21868 25.8507 5.92211 26.3387 5.70437C26.8343 5.47912 27.4537 5.3665 28.197 5.3665C28.6925 5.3665 29.1806 5.42657 29.6611 5.5467C30.1416 5.65932 30.5658 5.83201 30.9337 6.06476L30.3706 7.45002C30.0027 7.23979 29.6348 7.08588 29.2669 6.98827C28.899 6.88316 28.5386 6.8306 28.1857 6.8306C27.8329 6.8306 27.5438 6.87189 27.3185 6.95448C27.0933 7.03707 26.9319 7.14594 26.8343 7.28109C26.7367 7.40873 26.6879 7.55889 26.6879 7.73158C26.6879 7.9343 26.7704 8.09948 26.9356 8.22712C27.1008 8.34725 27.3185 8.44486 27.5888 8.51994C27.8591 8.59502 28.1557 8.67011 28.4786 8.74519C28.8089 8.82027 29.1355 8.90661 29.4584 9.00422C29.7887 9.10183 30.0891 9.23322 30.3594 9.3984C30.6297 9.56358 30.8474 9.78132 31.0126 10.0516C31.1853 10.3219 31.2716 10.6635 31.2716 11.0765C31.2716 11.5195 31.1477 11.9249 30.9 12.2928C30.6522 12.6607 30.2805 12.9573 29.785 13.1825C29.297 13.4078 28.6775 13.5204 27.9267 13.5204ZM32.5183 13.3853V5.50165H35.9308C36.6365 5.50165 37.2447 5.61802 37.7553 5.85078C38.2658 6.07602 38.66 6.40263 38.9378 6.8306C39.2156 7.25857 39.3545 7.76912 39.3545 8.36227C39.3545 8.94791 39.2156 9.45471 38.9378 9.88268C38.66 10.3106 38.2658 10.641 37.7553 10.8738C37.2447 11.099 36.6365 11.2116 35.9308 11.2116H33.5319L34.3428 10.3895V13.3853H32.5183ZM34.3428 10.5922L33.5319 9.72501H35.8294C36.3925 9.72501 36.813 9.60488 37.0908 9.36461C37.3686 9.12435 37.5075 8.79024 37.5075 8.36227C37.5075 7.92679 37.3686 7.58893 37.0908 7.34866C36.813 7.1084 36.3925 6.98827 35.8294 6.98827H33.5319L34.3428 6.12107V10.5922ZM43.3574 13.5204C42.7267 13.5204 42.1223 13.4378 41.5441 13.2726C40.966 13.0999 40.5005 12.8785 40.1476 12.6082L40.767 11.2342C41.1049 11.4744 41.5028 11.6734 41.9608 11.8311C42.4264 11.9812 42.8956 12.0563 43.3686 12.0563C43.729 12.0563 44.0181 12.0225 44.2358 11.9549C44.4611 11.8799 44.6263 11.7785 44.7314 11.6509C44.8365 11.5232 44.889 11.3768 44.889 11.2116C44.889 11.0014 44.8065 10.8362 44.6413 10.7161C44.4761 10.5885 44.2584 10.4871 43.9881 10.412C43.7178 10.3294 43.4174 10.2543 43.0871 10.1868C42.7642 10.1117 42.4376 10.0216 42.1073 9.91647C41.7844 9.81135 41.4878 9.6762 41.2175 9.51102C40.9472 9.34584 40.7257 9.12811 40.5531 8.85781C40.3879 8.58752 40.3053 8.24214 40.3053 7.82168C40.3053 7.37119 40.4254 6.96199 40.6657 6.59409C40.9135 6.21868 41.2814 5.92211 41.7694 5.70437C42.2649 5.47912 42.8844 5.3665 43.6277 5.3665C44.1232 5.3665 44.6112 5.42657 45.0918 5.5467C45.5723 5.65932 45.9965 5.83201 46.3644 6.06476L45.8013 7.45002C45.4334 7.23979 45.0655 7.08588 44.6976 6.98827C44.3297 6.88316 43.9693 6.8306 43.6164 6.8306C43.2635 6.8306 42.9745 6.87189 42.7492 6.95448C42.524 7.03707 42.3625 7.14594 42.2649 7.28109C42.1673 7.40873 42.1185 7.55889 42.1185 7.73158C42.1185 7.9343 42.2011 8.09948 42.3663 8.22712C42.5315 8.34725 42.7492 8.44486 43.0195 8.51994C43.2898 8.59502 43.5864 8.67011 43.9092 8.74519C44.2396 8.82027 44.5662 8.90661 44.889 9.00422C45.2194 9.10183 45.5197 9.23322 45.79 9.3984C46.0603 9.56358 46.2781 9.78132 46.4432 10.0516C46.6159 10.3219 46.7023 10.6635 46.7023 11.0765C46.7023 11.5195 46.5784 11.9249 46.3306 12.2928C46.0828 12.6607 45.7112 12.9573 45.2157 13.1825C44.7276 13.4078 44.1082 13.5204 43.3574 13.5204ZM42.7154 4.8597L41.2288 3.23793H42.5127L44.0669 4.57814H42.9181L44.4723 3.23793H45.7562L44.2696 4.8597H42.7154ZM49.627 8.67761H53.4224V10.0967H49.627V8.67761ZM49.7622 11.9212H54.0531V13.3853H47.949V5.50165H53.9067V6.96575H49.7622V11.9212ZM64.1002 5.50165H65.9247V13.3853H64.1002V5.50165ZM60.5188 13.3853H58.6943V5.50165H60.5188V13.3853ZM64.2354 10.153H60.3837V8.61004H64.2354V10.153ZM71.3826 13.3853V12.2027L71.27 11.9437V9.82637C71.27 9.45096 71.1536 9.15814 70.9209 8.94791C70.6956 8.73768 70.3465 8.63257 69.8735 8.63257C69.5506 8.63257 69.2315 8.68512 68.9162 8.79024C68.6083 8.88784 68.3456 9.02299 68.1278 9.19568L67.4971 7.96809C67.8275 7.73534 68.2254 7.55514 68.6909 7.4275C69.1564 7.29986 69.6295 7.23604 70.11 7.23604C71.0335 7.23604 71.7505 7.45378 72.2611 7.88925C72.7716 8.32473 73.0269 9.00422 73.0269 9.92773V13.3853H71.3826ZM69.5356 13.4754C69.0626 13.4754 68.6571 13.3965 68.3193 13.2388C67.9814 13.0737 67.7224 12.8522 67.5422 12.5744C67.362 12.2966 67.2719 11.985 67.2719 11.6396C67.2719 11.2792 67.3582 10.9639 67.5309 10.6936C67.7111 10.4233 67.9927 10.213 68.3756 10.0629C68.7585 9.9052 69.2578 9.82637 69.8735 9.82637H71.484V10.8512H70.0649C69.652 10.8512 69.3667 10.9188 69.209 11.054C69.0588 11.1891 68.9838 11.358 68.9838 11.5608C68.9838 11.786 69.0701 11.9662 69.2428 12.1014C69.423 12.229 69.667 12.2928 69.9748 12.2928C70.2677 12.2928 70.5304 12.2252 70.7632 12.0901C70.996 11.9474 71.1649 11.741 71.27 11.4707L71.5403 12.2815C71.4127 12.672 71.1799 12.9685 70.842 13.1713C70.5042 13.374 70.0687 13.4754 69.5356 13.4754ZM69.2653 6.54904L70.7857 4.92727H72.6778L70.6393 6.54904H69.2653ZM74.617 13.3853V5.02863H76.3739V13.3853H74.617ZM80.8877 13.4754C80.2419 13.4754 79.6676 13.3402 79.1645 13.0699C78.669 12.7996 78.2748 12.4317 77.982 11.9662C77.6967 11.4932 77.554 10.9564 77.554 10.3557C77.554 9.74753 77.6967 9.2107 77.982 8.74519C78.2748 8.27217 78.669 7.90427 79.1645 7.64148C79.6676 7.37119 80.2419 7.23604 80.8877 7.23604C81.5258 7.23604 82.0965 7.37119 82.5995 7.64148C83.1026 7.90427 83.4968 8.26842 83.7821 8.73393C84.0674 9.19943 84.21 9.74002 84.21 10.3557C84.21 10.9564 84.0674 11.4932 83.7821 11.9662C83.4968 12.4317 83.1026 12.7996 82.5995 13.0699C82.0965 13.3402 81.5258 13.4754 80.8877 13.4754ZM80.8877 12.0338C81.1805 12.0338 81.4433 11.9662 81.676 11.8311C81.9088 11.6959 82.0927 11.5045 82.2279 11.2567C82.363 11.0014 82.4306 10.7011 82.4306 10.3557C82.4306 10.0028 82.363 9.70248 82.2279 9.45471C82.0927 9.20694 81.9088 9.01548 81.676 8.88034C81.4433 8.74519 81.1805 8.67761 80.8877 8.67761C80.5948 8.67761 80.332 8.74519 80.0993 8.88034C79.8665 9.01548 79.6788 9.20694 79.5362 9.45471C79.401 9.70248 79.3335 10.0028 79.3335 10.3557C79.3335 10.7011 79.401 11.0014 79.5362 11.2567C79.6788 11.5045 79.8665 11.6959 80.0993 11.8311C80.332 11.9662 80.5948 12.0338 80.8877 12.0338ZM86.8637 13.3853L84.3184 7.32614H86.1317L88.249 12.5406H87.348L89.5441 7.32614H91.2335L88.6769 13.3853H86.8637ZM95.469 13.3853V12.2027L95.3564 11.9437V9.82637C95.3564 9.45096 95.24 9.15814 95.0072 8.94791C94.782 8.73768 94.4328 8.63257 93.9598 8.63257C93.637 8.63257 93.3179 8.68512 93.0025 8.79024C92.6947 8.88784 92.4319 9.02299 92.2142 9.19568L91.5835 7.96809C91.9138 7.73534 92.3118 7.55514 92.7773 7.4275C93.2428 7.29986 93.7158 7.23604 94.1963 7.23604C95.1198 7.23604 95.8369 7.45378 96.3474 7.88925C96.858 8.32473 97.1133 9.00422 97.1133 9.92773V13.3853H95.469ZM93.622 13.4754C93.1489 13.4754 92.7435 13.3965 92.4056 13.2388C92.0678 13.0737 91.8087 12.8522 91.6285 12.5744C91.4483 12.2966 91.3582 11.985 91.3582 11.6396C91.3582 11.2792 91.4446 10.9639 91.6173 10.6936C91.7975 10.4233 92.079 10.213 92.4619 10.0629C92.8449 9.9052 93.3442 9.82637 93.9598 9.82637H95.5703V10.8512H94.1513C93.7383 10.8512 93.453 10.9188 93.2954 11.054C93.1452 11.1891 93.0701 11.358 93.0701 11.5608C93.0701 11.786 93.1565 11.9662 93.3291 12.1014C93.5093 12.229 93.7534 12.2928 94.0612 12.2928C94.354 12.2928 94.6168 12.2252 94.8496 12.0901C95.0823 11.9474 95.2512 11.741 95.3564 11.4707L95.6267 12.2815C95.499 12.672 95.2663 12.9685 94.9284 13.1713C94.5905 13.374 94.155 13.4754 93.622 13.4754ZM102.738 13.3853V6.17738L103.526 6.96575H101.161V5.50165H104.562V13.3853H102.738ZM109.457 13.5204C108.736 13.5204 108.109 13.3702 107.576 13.0699C107.05 12.7696 106.645 12.3304 106.36 11.7522C106.074 11.1741 105.932 10.4608 105.932 9.61239C105.932 8.70389 106.1 7.9343 106.438 7.30361C106.784 6.67293 107.257 6.1924 107.857 5.86204C108.466 5.53168 109.164 5.3665 109.952 5.3665C110.373 5.3665 110.774 5.41155 111.157 5.50165C111.54 5.59175 111.871 5.72689 112.148 5.90709L111.473 7.2473C111.255 7.09714 111.022 6.99578 110.774 6.94322C110.527 6.88316 110.268 6.85312 109.997 6.85312C109.314 6.85312 108.773 7.0596 108.375 7.47255C107.978 7.8855 107.779 8.49742 107.779 9.3083C107.779 9.44345 107.779 9.59361 107.779 9.75879C107.786 9.92398 107.809 10.0892 107.846 10.2543L107.339 9.78132C107.482 9.4885 107.666 9.24448 107.891 9.04927C108.116 8.84655 108.383 8.69638 108.691 8.59878C109.006 8.49366 109.352 8.44111 109.727 8.44111C110.238 8.44111 110.696 8.54247 111.101 8.74519C111.506 8.94791 111.829 9.23322 112.07 9.60112C112.317 9.96902 112.441 10.4007 112.441 10.8963C112.441 11.4294 112.306 11.8949 112.036 12.2928C111.773 12.6832 111.416 12.9873 110.966 13.2051C110.523 13.4153 110.02 13.5204 109.457 13.5204ZM109.355 12.1577C109.611 12.1577 109.836 12.1126 110.031 12.0225C110.234 11.9249 110.391 11.786 110.504 11.6058C110.617 11.4256 110.673 11.2191 110.673 10.9864C110.673 10.626 110.549 10.3407 110.301 10.1305C110.061 9.91271 109.738 9.80384 109.333 9.80384C109.062 9.80384 108.826 9.8564 108.623 9.96152C108.421 10.0591 108.259 10.198 108.139 10.3782C108.026 10.5509 107.97 10.7536 107.97 10.9864C107.97 11.2116 108.026 11.4144 108.139 11.5945C108.252 11.7672 108.409 11.9061 108.612 12.0113C108.815 12.1089 109.062 12.1577 109.355 12.1577Z" fill="white"/>
<defs>
<clipPath id="clip0_31_185">
<rect width="18.7705" height="18.7705" fill="white"/>
</clipPath>
</defs>
</svg>
