<svg version="1.1" id="Layer_1" xmlns="http://www.w3.org/2000/svg" xmlns:xlink="http://www.w3.org/1999/xlink" x="0px" y="0px" viewBox="0 0 293.4 238.9" style="enable-background:new 0 0 293.4 238.9;" xml:space="preserve">
 <style type="text/css">
  .st0{fill:#FFFFFF;}
 </style>
 <g>
  <path class="st0" d="M185.4,189.7c-6.3-7.2-2.7-10.9,3.7-11.8c-1-1.7-0.7-3.3-3-5.2c-5.4-4.5-13.7,0.9-15.6-0.4
		c-1.4-1-0.2-7.1-2-7.7c-9.5-2.1-7,24.4,2.2,29.7c12.8,7.4,9,17.4,6,30.8c-1.6,7-13.3-3-13.3,13.7c4.2-4.2,12.1-0.4,16.3-0.4
		c2.2,0,3.8-1.2,4.4-4.7c1.5-9.5,4.1-20,7.7-26.2C198.2,196.7,193.4,199,185.4,189.7 M26,196.9H0v25.9h26V196.9z M11.4,181.6
		c-3.7,0-6.6-0.2-11.4,2.1c3.5,1,0,8.4,9.4,8.4c7.7,0,14.6-6.7,17.3-4.8c3,2.1,6.9,6.2,13.2,19.9c0.7,1.4,3.7,9,7.7,10.9
		c5.2,0-1.9-12.2-0.2-23c-2.7-2.7-13.2-16.8-17.9-17.5C24.5,176.8,19.7,181.5,11.4,181.6 M57.5,139.2c0,2.2-1.8,4-4,4
		c-2.2,0-4-1.8-4-4c0-2.2,1.8-4,4-4C55.7,135.3,57.5,137,57.5,139.2 M177.3,0c26.9,25.1-67.4,76.7-80.7,86.3
		c-7.7,5.6-21.9,12.5-21.9,25.9c0,20,37.9,31.7,40,53.2c1.3,13.7-17.6,20.7-26.3,3.8c-11.2,2.6-13.4-5.8-15.7-10.1
		c-4.9,4.1-13.3,0.5-13.4-1.3c0-0.1,8.6,1.3,12.3-3.5c2.5-3.2,0.9-11.1,2.4-11.2c1.5-0.1,0.7,24,16.6,19.7c0,0-3.7-3.8-5.5-7.6
		c-4.6-9.6-1.1-17.1-10.1-17.9c-0.7-0.1-2.8-3.5-5.3-4.9c-4.9-2.8-10.8-2.8-18.3-1.6c-6.3,1-3.2,2.1-21.5,2.1c-4.6,0-6-0.1-5.8,2.4
		c0.3,3,4.3,10.8,6.1,12.4c6.5,5.9,19.6,1.2,24.1,13.2c1.7,4.5,3.4,13.2,2.5,16.3c-0.6,2.2-4.1,13.7-3.4,22.5
		c0.8,10.6,3.8,16,9.2,18.8c3.6,1.8,10.7,2,8.7,4.3c-1.4,1.6-30.2,1.4-38,1.7c-5.8,0.2-8.9,4.3-19.4,4.3c-3,0-9.8-0.9-13.7,2.5
		c0.7,0.3,1.8,1.2,2.1,2.8c0.3,1.6,1.1,4.8,6.8,4.8c11.5,0,10.6-4.2,23.9-5c13.7-0.9,27.7,4.5,37.2,4.5c5,0,9.1,0,12.5,0
		c12.2,0,14.4-0.4,14.4-4.5c0-5.2-2.5-13.3,12.8-17.8c44-12.9,8.4-75.9-16.9-97.7c-4.4,1.9-10.2,1-12.5-3.1
		c-7.5-13.6,24.1-25.8,51.7-44.8C141.8,63.9,217.4,20.8,177.3,0 M135.1,165.1c5.6,2.4,13.1-2.2,13.5-9.5c-7.2,0-15.5,2.6-22.7-2.3
		C126.7,155.6,130,162.9,135.1,165.1 M144.1,173.8c-4.2-0.6-8.3-2-12.1-5.8c1.2,4.5,2.3,11.6,6.7,11.6
		C143.1,179.5,144.1,176.5,144.1,173.8 M166.5,112.6c-9.3,6.8-29.3,21.5-51.9,19.6c6.2,11.3,24.3,6.9,36-0.7
		C161.9,124,165.1,118.9,166.5,112.6 M141.2,121.2c25.5-12.6,39.2-25.9,40.8-38c-7.2,8-24.1,19.5-44.8,29.7
		c-13,6.4-20.1,9.1-30.2,9.9C114.5,132.5,130.1,126.7,141.2,121.2 M151.8,137.6c-4.8,3.9-15.6,8.2-31.8,4.6
		C126.7,157.8,151.8,153.7,151.8,137.6 M199.3,27.8C203.1,11.2,192,3,192,3c18,29.9-38.9,61.3-80.7,87.4
		c-15.2,9.5-28.6,17.4-25.1,21.7c2.1,2.6,11.6-2.4,24.5-9.8c18.3-10.5,41.5-24.9,52.6-32.8C176.5,60.2,195.5,44.5,199.3,27.8
		 M202,37.9c-10.1,21.1-27.2,33.3-53.7,49.4c-25.9,15.8-27.4,16.2-49.6,27.7c8.9,8.9,33.1-4.8,48.6-14.7
		C174.1,83.1,205.7,60.8,202,37.9 M213.4,140.9c-16.9-11.2-38.6-14-57.3-6.5c0,12-4.6,13.8-8,17.1c3.1,0,2.2,0.2,4.9,0.1
		c0.5,14.7-7.5,16.5-11.7,17.1c2.7,0.9,7.6,1,7.6,1s0.3,16.3-12.3,14c0,11.3,0.5,15.2-7.3,26.8c-7.3,10.9-27.8,9.5-25.8,21.4
		c18.9,0,26.5-2.6,33.9-11.2c7.4-8.8,15.3-32.8,18.8-50.8c3.6-18,20.3-16.3,31.7-6.2c9.4,8.3,8.7,19.4,16.4,28.5
		c10.3,12.1,19.5,5.9,24.3,24.1c0.8,3,0.8,7.8-0.3,10.4c-2,4.6-11.9-1.8-10.4,12.4c1.9-3.6,11.8-0.6,15.7-0.6c3.4,0,4.8-2.6,4.8-6.6
		c0-1.8-0.2-4.7-0.6-7.8c-0.8-5.7-0.6-10.1-0.6-13.4c0-8.2,1.2-10.4,1.2-12.6c0-0.9-0.1-1.7-1.1-3.1c-1-1.4-5.7-3.2-11.7-7.5
		C213.4,178.4,229,151.2,213.4,140.9 M223.7,9.2c0,0.3-0.2,0.5-0.5,0.5h-3.5V7.5h3.5c0.3,0,0.5,0.2,0.5,0.5V9.2z M225.2,13.1
		l-1.2-2.2c0.7-0.3,1.2-1,1.2-1.7V8.1c0-1-0.8-1.9-1.9-1.9h-5.1v7.4h1.5v-2.5h2.7l1.5,2.8L225.2,13.1z M227,9.8c0,3-2.4,5.4-5.4,5.4
		c-3,0-5.4-2.4-5.4-5.4s2.4-5.4,5.4-5.4C224.5,4.3,227,6.8,227,9.8 M228.3,9.8c0-3.8-3-6.8-6.8-6.8c-3.7,0-6.8,3-6.8,6.8
		s3,6.8,6.8,6.8C225.3,16.6,228.3,13.5,228.3,9.8 M293.4,187.2c0-7.4-6.7-14-14.3-11.9c4.8,0,10.4,3.9,10.4,10.5
		c0,5.8-4.4,10.8-10.8,10.8c-17.6,0-26.8-27.4-52.3-48.1c0,0-0.8,10.3,4.5,15.6c11,10.9,28.9,37.6,47.2,37.6
		C288.9,201.7,293.4,193.4,293.4,187.2">
  </path>
 </g>
</svg>